HIERARCHY
ROOT Root
{
	OFFSET 0.00000 0.00000 0.00000
	CHANNELS 6 Xposition Yposition Zposition Zrotation Xrotation Yrotation
	JOINT Hip
	{
		OFFSET 0 0 0	
		CHANNELS 3 Zrotation Xrotation Yrotation
		JOINT Tummy
		{
			OFFSET 0 0.04 0	
			CHANNELS 3 Zrotation Xrotation Yrotation
			JOINT ChestBottom
			{
				OFFSET 0 0.194 0	
				CHANNELS 3 Zrotation Xrotation Yrotation
				JOINT ChestTop
				{
					OFFSET 0 0.166 0	
					CHANNELS 3 Zrotation Xrotation Yrotation
					JOINT LeftCollar
					{
						OFFSET 0 0.1 0	
						CHANNELS 3 Zrotation Xrotation Yrotation
						JOINT LeftUpperArm
						{
							OFFSET 0.156 -0.02 0.03	
							CHANNELS 3 Zrotation Xrotation Yrotation
							JOINT LeftForeArm
							{
								OFFSET 0.035 -0.27 -0.01	
								CHANNELS 3 Zrotation Xrotation Yrotation
								JOINT LeftHand
								{
									OFFSET 0.01 -0.27 0.01	
									CHANNELS 3 Zrotation Xrotation Yrotation
									End Site
									{
										OFFSET 0 -0.15 0
									}
								}
							}
						}
					}
					JOINT RightCollar
					{
						OFFSET 0 0.1 0	
						CHANNELS 3 Zrotation Xrotation Yrotation
						JOINT RightUpperArm
						{
							OFFSET -0.156 -0.02 0.03	
							CHANNELS 3 Zrotation Xrotation Yrotation
							JOINT RightForeArm
							{
								OFFSET -0.035 -0.27 -0.01	
								CHANNELS 3 Zrotation Xrotation Yrotation
								JOINT RightHand
								{
									OFFSET -0.01 -0.27 0.01	
									CHANNELS 3 Zrotation Xrotation Yrotation
									End Site
									{
										OFFSET 0 -0.15 0
									}
								}
							}
						}
					}
					JOINT Neck
					{
						OFFSET 0 0.1 0	
						CHANNELS 3 Zrotation Xrotation Yrotation
						JOINT Head
						{
							OFFSET 0 0.127 0.03	
							CHANNELS 3 Zrotation Xrotation Yrotation
							End Site
							{
								OFFSET 0 0.127 0.03
							}
						}
					}
				}
			}
		}
	}
	JOINT LeftHip
	{
		OFFSET 0 0 0	
		CHANNELS 3 Zrotation Xrotation Yrotation
		JOINT LeftThigh
		{
			OFFSET 0.088 -0.06 0	
			CHANNELS 3 Zrotation Xrotation Yrotation
			JOINT LeftLowerLeg
			{
				OFFSET 0 -0.39 0.02	
				CHANNELS 3 Zrotation Xrotation Yrotation
				JOINT LeftFootTop
				{
					OFFSET 0 -0.43 -0.02	
					CHANNELS 3 Zrotation Xrotation Yrotation
					JOINT LeftFootFront
					{
						OFFSET 0 -0.07 0.085	
						CHANNELS 3 Zrotation Xrotation Yrotation
						End Site
						{
							OFFSET 0 -0.005 0.09
						}
					}
				}
				JOINT LeftHeel
				{
					OFFSET 0 -0.43 -0.02	
					CHANNELS 3 Zrotation Xrotation Yrotation
					End Site
					{
						OFFSET 0 -0.075 -0.05
					}
				}
			}
		}
	}
	JOINT RightHip
	{
		OFFSET 0 0 0	
		CHANNELS 3 Zrotation Xrotation Yrotation
		JOINT RightThigh
		{
			OFFSET -0.088 -0.06 0	
			CHANNELS 3 Zrotation Xrotation Yrotation
			JOINT RightLowerLeg
			{
				OFFSET 0 -0.39 0.02	
				CHANNELS 3 Zrotation Xrotation Yrotation
				JOINT RightFootTop
				{
					OFFSET 0 -0.43 -0.02	
					CHANNELS 3 Zrotation Xrotation Yrotation
					JOINT RightFootFront
					{
						OFFSET 0 -0.07 0.085	
						CHANNELS 3 Zrotation Xrotation Yrotation
						End Site
						{
							OFFSET 0 -0.005 0.09
						}
					}
				}
				JOINT RightHeel
				{
					OFFSET 0 -0.43 -0.02	
					CHANNELS 3 Zrotation Xrotation Yrotation
					End Site
					{
						OFFSET 0 -0.075 -0.05
					}
				}
			}
		}
	}
}
MOTION
Frames: 12
Frame Time: 0.05
0 0.955 0 -0 0 -0 -0 0 -0 -0 0 -0 6.9872 24.762 -21.037 -0 0 -0 -0 0 -0 40.773 -35.836 14.688 -107.86 -55.682 -116.93 -0 0 -0 -0 0 -0 -12.028 -46.344 -8.484 125.84 -44.335 61.883 -0 0 -0 0.7875 -30.001 2.4169 0.78749 -30.001 2.4169 -0 0 -0 -0 0 -0 -0 0 -0 -0 0 -0 -0 0 -0 -0 0 -0 -0 0 -0 -0 0 -0 -0 0 -0 -0 0 -0 -0 0 -0 -0 0 -0 
0 0.955 0 -0 0 -0 -0 0 -0 -0 0 -0 7.1633 24.774 -21.154 -0 0 -0 -0 0 -0 40.685 -35.878 14.766 -107.85 -55.683 -116.87 -0 0 -0 -0 0 -0 -12.42 -45.826 -9.0192 126.03 -43.834 61.869 -0 0 -0 0.77968 -30.05 2.4577 0.77968 -30.05 2.4577 -0 0 -0 -0 0 -0 -0 0 -0 -0 0 -0 -0 0 -0 -0 0 -0 -0 0 -0 -0 0 -0 -0 0 -0 -0 0 -0 -0 0 -0 -0 0 -0 
0 0.955 0 -0 0 -0 -0 0 -0 -0 0 -0 7.1699 24.697 -21.201 -0 0 -0 -0 0 -0 40.681 -35.822 14.802 -107.84 -55.654 -116.78 -0 0 -0 -0 0 -0 -12.639 -45.21 -9.3862 126.44 -43.4 62.095 -0 0 -0 0.79153 -29.953 2.4311 0.79153 -29.953 2.4311 -0 0 -0 -0 0 -0 -0 0 -0 -0 0 -0 -0 0 -0 -0 0 -0 -0 0 -0 -0 0 -0 -0 0 -0 -0 0 -0 -0 0 -0 -0 0 -0 
0 0.955 0 -0 0 -0 -0 0 -0 -0 0 -0 7.1083 24.691 -21.172 -0 0 -0 -0 0 -0 40.765 -35.825 14.856 -107.87 -55.629 -116.74 -0 0 -0 -0 0 -0 -12.794 -44.782 -9.6518 127.23 -43.086 62.938 -0 0 -0 0.79498 -29.797 2.3329 0.79498 -29.797 2.3329 -0 0 -0 -0 0 -0 -0 0 -0 -0 0 -0 -0 0 -0 -0 0 -0 -0 0 -0 -0 0 -0 -0 0 -0 -0 0 -0 -0 0 -0 -0 0 -0 
0 0.955 0 -0 0 -0 -0 0 -0 -0 0 -0 7.0927 24.544 -21.195 -0 0 -0 -0 0 -0 40.679 -35.728 14.757 -107.75 -55.653 -116.65 -0 0 -0 -0 0 -0 -12.886 -44.342 -9.792 128.53 -42.624 64.464 -0 0 -0 0.7994 -29.614 2.2651 0.7994 -29.614 2.2651 -0 0 -0 -0 0 -0 -0 0 -0 -0 0 -0 -0 0 -0 -0 0 -0 -0 0 -0 -0 0 -0 -0 0 -0 -0 0 -0 -0 0 -0 -0 0 -0 
0 0.955 0 -0 0 -0 -0 0 -0 -0 0 -0 7.1724 24.438 -21.409 -0 0 -0 -0 0 -0 40.621 -35.602 14.789 -107.68 -55.729 -116.56 -0 0 -0 -0 0 -0 -12.841 -44.186 -9.7235 130.35 -42.062 66.623 -0 0 -0 0.8726 -29.53 2.2809 0.8726 -29.53 2.2809 -0 0 -0 -0 0 -0 -0 0 -0 -0 0 -0 -0 0 -0 -0 0 -0 -0 0 -0 -0 0 -0 -0 0 -0 -0 0 -0 -0 0 -0 -0 0 -0 
0 0.955 0 -0 0 -0 -0 0 -0 -0 0 -0 7.164 24.579 -21.632 -0 0 -0 -0 0 -0 40.763 -35.637 15.038 -107.54 -55.723 -116.39 -0 0 -0 -0 0 -0 -12.716 -44.682 -9.5575 132.53 -41.735 69.14 -0 0 -0 1.0687 -29.593 2.1943 1.0687 -29.593 2.1943 -0 0 -0 -0 0 -0 -0 0 -0 -0 0 -0 -0 0 -0 -0 0 -0 -0 0 -0 -0 0 -0 -0 0 -0 -0 0 -0 -0 0 -0 -0 0 -0 
0 0.955 0 -0 0 -0 -0 0 -0 -0 0 -0 7.0263 24.636 -21.84 -0 0 -0 -0 0 -0 40.961 -35.581 15.286 -107.3 -55.649 -116.18 -0 0 -0 -0 0 -0 -12.457 -45.531 -9.0025 134.86 -41.782 71.639 -0 0 -0 1.3105 -29.58 1.9732 1.3105 -29.58 1.9732 -0 0 -0 -0 0 -0 -0 0 -0 -0 0 -0 -0 0 -0 -0 0 -0 -0 0 -0 -0 0 -0 -0 0 -0 -0 0 -0 -0 0 -0 -0 0 -0 
0 0.955 0 -0 0 -0 -0 0 -0 -0 0 -0 6.7757 24.711 -21.949 -0 0 -0 -0 0 -0 41.286 -35.525 15.504 -107.04 -55.58 -115.93 -0 0 -0 -0 0 -0 -12.039 -46.746 -8.4097 136.77 -42.011 73.59 -0 0 -0 1.5219 -29.436 1.5959 1.5219 -29.436 1.5959 -0 0 -0 -0 0 -0 -0 0 -0 -0 0 -0 -0 0 -0 -0 0 -0 -0 0 -0 -0 0 -0 -0 0 -0 -0 0 -0 -0 0 -0 -0 0 -0 
0 0.955 0 -0 0 -0 -0 0 -0 -0 0 -0 6.6192 24.868 -22.08 -0 0 -0 -0 0 -0 41.603 -35.55 15.786 -106.8 -55.55 -115.75 -0 0 -0 -0 0 -0 -11.622 -48.37 -7.9148 137.96 -42.357 74.597 -0 0 -0 1.653 -29.209 1.2311 1.653 -29.209 1.2311 -0 0 -0 -0 0 -0 -0 0 -0 -0 0 -0 -0 0 -0 -0 0 -0 -0 0 -0 -0 0 -0 -0 0 -0 -0 0 -0 -0 0 -0 -0 0 -0 
0 0.955 0 -0 0 -0 -0 0 -0 -0 0 -0 6.4785 24.935 -22.263 -0 0 -0 -0 0 -0 41.846 -35.493 15.996 -106.71 -55.579 -115.63 -0 0 -0 -0 0 -0 -11.072 -50.095 -7.4333 138.49 -42.771 74.975 -0 0 -0 1.7629 -28.788 0.98562 1.7629 -28.788 0.98563 -0 0 -0 -0 0 -0 -0 0 -0 -0 0 -0 -0 0 -0 -0 0 -0 -0 0 -0 -0 0 -0 -0 0 -0 -0 0 -0 -0 0 -0 -0 0 -0 
0 0.955 0 -0 0 -0 -0 0 -0 -0 0 -0 6.416 25.103 -22.535 -0 0 -0 -0 0 -0 42.154 -35.5 16.346 -106.58 -55.596 -115.42 -0 0 -0 -0 0 -0 -10.57 -51.879 -7.2408 138.74 -43.104 75.258 -0 0 -0 1.9118 -28.308 0.90032 1.9118 -28.308 0.90032 -0 0 -0 -0 0 -0 -0 0 -0 -0 0 -0 -0 0 -0 -0 0 -0 -0 0 -0 -0 0 -0 -0 0 -0 -0 0 -0 -0 0 -0 -0 0 -0 
